<?xml version="1.0" encoding="utf-8"?>
<!-- Generator: Adobe Illustrator 26.5.0, SVG Export Plug-In . SVG Version: 6.00 Build 0)  -->
<svg version="1.1" id="Camada_1" xmlns="http://www.w3.org/2000/svg" xmlns:xlink="http://www.w3.org/1999/xlink" x="0px" y="0px"
	 viewBox="0 0 865 468" style="enable-background:new 0 0 865 468;" xml:space="preserve">
<style type="text/css">
	.st0{fill:none;}
	.st1{fill:#F89747;}
	.st2{fill:#FFE95E;}
	.st3{fill:#131E30;}
	.st4{fill:#BABABA;}
	.st5{clip-path:url(#SVGID_00000042722412202761441560000002140609763502177161_);fill:#131E30;}
	.st6{opacity:0.87;clip-path:url(#SVGID_00000042722412202761441560000002140609763502177161_);fill:#131E30;}
	.st7{fill:#FFFFFF;}
</style>
<path class="st0" d="M563,233"/>
<g>
	<path class="st1" d="M826.33,132.28c-2.7-22.96-27.83-38.13-49.21-28.61c-37.89,20.75-129.55,74.5-167.97,96.42
		c-21.69,12.51-66.87,38.6-88.14,50.87l-3.39,1.96l-1.69,0.98l-0.33,0.18c-1.24,0.69-2.84,0.83-4.2,0.28
		C488.2,242,393.98,187.49,371.32,178.49c-21.12-9.96-46.16,9.6-39.33,32.25c1.44,5.35,6.4,10.6,9.6,14.88
		c6.52,8.29,13.18,16.48,20.13,24.52c-3.54-10.02-7.36-19.87-11.33-29.63c0,0-3.01-7.3-3.01-7.3c-0.8-1.81-1.44-3.69-1.47-5.63
		c-0.6-7.79,8.71-15.24,15.37-9.62l0.44,0.32c0,0,0.81,0.56,0.81,0.56c18.01,13.3,62.51,37.66,82.24,49.37
		c12.41,7.18,35.25,20.39,47.43,27.44c0.49,0.27,3.86,2.25,4.23,2.45c9.09,5.53,20.79,6.28,30.52,1.9c2.55-1.14,5.59-2.96,8.07-4.31
		c75.51-41.94,177.53-98.43,253.16-140.71l0.85-0.48l0.43-0.24c0.18-0.04,0.35-0.19,0.5-0.21c1.19-0.51,2.21,0.18,2.99,1.4
		c0.29,0.68,0.36,0.86,0.17,1.49c-0.23,0.45,0.07,0.05-1.84,2.99l-4.24,6.58c0,0-67.88,105.25-67.88,105.25
		c-5.7,8.74-19.88,30.98-25.41,39.5l-4.23,6.59l-1.04,1.61c-0.23,0.31-0.61,0.54-1,0.54c0,0-2.54,0-2.54,0
		c-28.14-0.07-81.06-0.26-109.59-0.33c0,0-52.49-0.05-61.35-0.06v0c-26.39-0.5-52.78-0.8-79.17-0.98
		c-27.08-0.25-68.46-0.26-95.42-0.3c-34.12-53.82-73.86-114.65-109.71-169.28l-21.76-33.08l-5.44-8.27l-0.68-1.03l-0.34-0.52
		c0,0-0.63-0.91-0.63-0.91c-6.14-9.04-16.58-14.9-27.48-15.51c-5.65-0.34-11.34,0.77-16.51,3.03c-12.23,4.96-24.2,10.64-36.04,16.65
		c-35.36,18.45-71.32,35.36-106.62,54.01c25.94-5.95,51.6-12.65,77.31-19.24c26.01-6.76,52.63-12.04,78.05-20.81
		c0.99-0.46,2.39-0.19,2.98,0.74c0.04,0.08,0.1,0.15,0.13,0.24c0.03,0.04,0-0.02,0.08,0.1c0,0,0.32,0.53,0.32,0.53l0.65,1.05
		c0,0,5.19,8.42,5.19,8.42c40.78,66.33,84.05,135.81,125.7,201.54c0,0,1.32,2.09,1.32,2.09c5.43,9.44,15.53,16.81,26.43,18.62
		c2.75,0.53,5.66,0.65,8.45,0.63c2.76,0.04,12.14-0.08,14.84-0.02c19.71,0.06,59.47-0.17,79.17-0.28
		c26.39-0.19,52.78-0.48,79.17-0.98c0,0,0,0,0,0c8.95-0.01,61.33-0.05,61.35-0.06c20.27-0.05,74.46-0.25,93.93-0.29
		c3.39-0.08,17.98,0.1,20.94-0.18c7.55-0.57,14.88-3.58,20.7-8.43c3.45-2.82,6.23-6.38,8.54-10.17
		c20.32-32.1,74.83-118.78,95.93-152.35c0,0,4.17-6.63,4.17-6.63c1.75-2.47,4.33-7.36,5.41-10.82
		C826.46,142.44,826.95,137.25,826.33,132.28z"/>
	<circle class="st1" cx="400.6" cy="369.73" r="25.87"/>
	<circle class="st1" cx="622.19" cy="369.73" r="25.87"/>
</g>
<rect x="222" y="-117" class="st2" width="40" height="40"/>
<rect x="271" y="-117" class="st3" width="40" height="40"/>
<rect x="320" y="-117" class="st4" width="40" height="40"/>
<rect x="1181.15" y="-86" class="st1" width="556" height="1065"/>
<g>
	<defs>
		<rect id="SVGID_1_" x="1181.15" y="-86" width="556" height="1065"/>
	</defs>
	<clipPath id="SVGID_00000020363932068541260690000002406676286912270240_">
		<use xlink:href="#SVGID_1_"  style="overflow:visible;"/>
	</clipPath>
	
		<circle style="clip-path:url(#SVGID_00000020363932068541260690000002406676286912270240_);fill:#131E30;" cx="1401.51" cy="353.5" r="145.5"/>
	
		<circle style="opacity:0.87;clip-path:url(#SVGID_00000020363932068541260690000002406676286912270240_);fill:#131E30;" cx="1569.51" cy="359.5" r="110.5"/>
	<path style="opacity:0.87;clip-path:url(#SVGID_00000020363932068541260690000002406676286912270240_);fill:#131E30;" d="
		M1152.15,772.51c0,0,95.85-40.51,142.85,40.49c37.16,64.04,55.47,148.8,115.23,142.9S1631,925,1656,989s25,64,25,64l-620-54
		L1152.15,772.51z"/>
	<path style="clip-path:url(#SVGID_00000020363932068541260690000002406676286912270240_);fill:#131E30;" d="M1148,814
		c0,0,90-43.32,134,28.84c44,72.16,85.47,106.52,157.24,85.84S1621,939,1599,1015s-351.24,0-351.24,0l-136.76-8L1148,814z"/>
</g>
<g>
	<path class="st7" d="M1636.18,310.85c-1.18-10.01-12.14-16.63-21.46-12.48c-16.52,9.05-56.5,32.49-73.25,42.05
		c-9.46,5.46-29.16,16.84-38.44,22.19l-1.48,0.85l-0.74,0.43l-0.15,0.08c-0.54,0.3-1.24,0.36-1.83,0.12
		c-10.11-5.39-51.21-29.16-61.09-33.09c-9.21-4.34-20.13,4.19-17.15,14.07c0.63,2.33,2.79,4.62,4.19,6.49
		c2.84,3.61,5.75,7.19,8.78,10.69c-1.54-4.37-3.21-8.66-4.94-12.92c0,0-1.31-3.19-1.31-3.19c-0.35-0.79-0.63-1.61-0.64-2.46
		c-0.26-3.4,3.8-6.65,6.7-4.2l0.19,0.14c0,0,0.35,0.24,0.35,0.24c7.86,5.8,27.26,16.42,35.86,21.53
		c5.41,3.13,15.37,8.89,20.69,11.97c0.21,0.12,1.68,0.98,1.85,1.07c3.96,2.41,9.07,2.74,13.31,0.83c1.11-0.5,2.44-1.29,3.52-1.88
		c32.93-18.29,77.42-42.92,110.4-61.37l0.37-0.21l0.19-0.1c0.08-0.02,0.15-0.08,0.22-0.09c0.52-0.22,0.97,0.08,1.31,0.61
		c0.13,0.29,0.15,0.38,0.07,0.65c-0.1,0.2,0.03,0.02-0.8,1.31l-1.85,2.87c0,0-29.6,45.9-29.6,45.9
		c-2.49,3.81-8.67,13.51-11.08,17.23l-1.84,2.87l-0.45,0.7c-0.1,0.13-0.26,0.23-0.44,0.23c0,0-1.11,0-1.11,0
		c-12.27-0.03-35.35-0.11-47.79-0.15c0,0-22.89-0.02-26.76-0.03v0c-11.51-0.22-23.02-0.35-34.53-0.43
		c-11.81-0.11-29.85-0.11-41.62-0.13c-14.88-23.47-32.21-50-47.85-73.83l-9.49-14.43l-2.37-3.61l-0.3-0.45l-0.15-0.23
		c0,0-0.27-0.4-0.27-0.4c-2.68-3.94-7.23-6.5-11.99-6.76c-2.47-0.15-4.95,0.34-7.2,1.32c-5.33,2.16-10.55,4.64-15.72,7.26
		c-15.42,8.04-31.1,15.42-46.5,23.55c11.31-2.6,22.51-5.52,33.72-8.39c11.34-2.95,22.95-5.25,34.04-9.08
		c0.43-0.2,1.04-0.08,1.3,0.32c0.02,0.03,0.04,0.06,0.06,0.1c0.01,0.02,0-0.01,0.03,0.05c0,0,0.14,0.23,0.14,0.23l0.28,0.46
		c0,0,2.27,3.67,2.27,3.67c17.79,28.93,36.66,59.23,54.82,87.89c0,0,0.58,0.91,0.58,0.91c2.37,4.12,6.77,7.33,11.53,8.12
		c1.2,0.23,2.47,0.28,3.68,0.28c1.2,0.02,5.29-0.03,6.47-0.01c8.59,0.03,25.94-0.08,34.53-0.12c11.51-0.08,23.02-0.21,34.53-0.43
		c0,0,0,0,0,0c3.9,0,26.75-0.02,26.76-0.03c8.84-0.02,32.47-0.11,40.96-0.12c1.48-0.04,7.84,0.04,9.13-0.08
		c3.29-0.25,6.49-1.56,9.03-3.68c1.51-1.23,2.72-2.78,3.72-4.43c8.86-14,32.63-51.8,41.84-66.44c0,0,1.82-2.89,1.82-2.89
		c0.76-1.08,1.89-3.21,2.36-4.72C1636.24,315.28,1636.45,313.02,1636.18,310.85z"/>
	<circle class="st7" cx="1450.52" cy="414.41" r="11.28"/>
	<circle class="st7" cx="1547.16" cy="414.41" r="11.28"/>
</g>
<path class="st7" d="M1557.72,615.16h-197.15c-14.4,0-26.08-11.68-26.08-26.08v0c0-14.4,11.68-26.08,26.08-26.08h197.15
	c14.4,0,26.08,11.68,26.08,26.08v0C1583.81,603.49,1572.13,615.16,1557.72,615.16z"/>
<path class="st7" d="M1557.72,680h-197.15c-14.4,0-26.08-11.68-26.08-26.08v0c0-14.4,11.68-26.08,26.08-26.08h197.15
	c14.4,0,26.08,11.68,26.08,26.08v0C1583.81,668.32,1572.13,680,1557.72,680z"/>
<text transform="matrix(1 0 0 1 1450.5957 603.1797)" style="fill:#BA3E2E; font-family:'Montserrat-SemiBold'; font-size:40.9631px; letter-spacing:8;">G</text>
</svg>
